<svg width="20" height="16" viewBox="0 0 20 16" fill="none" xmlns="http://www.w3.org/2000/svg">
<path fill-rule="evenodd" clip-rule="evenodd" d="M11.2097 0.3871L11.2929 0.292893C11.6534 -0.0675907 12.2206 -0.0953197 12.6129 0.209704L12.7071 0.292893L19.7071 7.29289L19.7485 7.33685L19.8037 7.40469L19.8753 7.51594L19.9288 7.62866L19.9642 7.73401L19.9931 7.8819L20 8L19.9972 8.07524L19.9798 8.20073L19.9503 8.31214L19.9063 8.42322L19.854 8.52071L19.7803 8.62545L19.7071 8.70711L12.7071 15.7071C12.3166 16.0976 11.6834 16.0976 11.2929 15.7071C10.9324 15.3466 10.9047 14.7794 11.2097 14.3871L11.2929 14.2929L16.584 9H1C0.447715 9 0 8.55228 0 8C0 7.44771 0.447715 7 1 7L16.586 7L11.2929 1.70711C10.9324 1.34662 10.9047 0.779391 11.2097 0.3871L11.2929 0.292893L11.2097 0.3871Z" fill="#023047"/>
</svg>
