<svg width="20" height="16" viewBox="0 0 20 16" fill="none" xmlns="http://www.w3.org/2000/svg">
<path fill-rule="evenodd" clip-rule="evenodd" d="M8.7903 0.3871L8.70711 0.292893C8.34662 -0.0675907 7.77939 -0.0953197 7.3871 0.209704L7.29289 0.292893L0.292892 7.29289L0.251495 7.33685L0.196335 7.40469L0.124672 7.51594L0.0712261 7.62866L0.0358448 7.73401L0.00690651 7.8819L0 8L0.00278854 8.07524L0.0202408 8.20073L0.0497379 8.31214L0.0936737 8.42322L0.145996 8.52071L0.219688 8.62545L0.292892 8.70711L7.29289 15.7071C7.68342 16.0976 8.31658 16.0976 8.70711 15.7071C9.06759 15.3466 9.09532 14.7794 8.7903 14.3871L8.70711 14.2929L3.416 9H19C19.5523 9 20 8.55228 20 8C20 7.44771 19.5523 7 19 7L3.414 7L8.70711 1.70711C9.06759 1.34662 9.09532 0.779391 8.7903 0.3871L8.70711 0.292893L8.7903 0.3871Z" fill="#023047"/>
</svg>
