<svg width="16" height="16" viewBox="0 0 16 16" fill="none" xmlns="http://www.w3.org/2000/svg">
<mask id="path-1-outside-1_0_1365" maskUnits="userSpaceOnUse" x="0" y="0" width="16" height="16" fill="black">
<rect fill="white" width="16" height="16"/>
<path fill-rule="evenodd" clip-rule="evenodd" d="M14 8C14 4.68629 11.3137 2 8 2C4.68629 2 2 4.68629 2 8C2 11.3137 4.68629 14 8 14C11.3137 14 14 11.3137 14 8ZM6 5C6 4.44772 6.44772 4 7 4C7.55228 4 8 4.44772 8 5V7.58579L9.70711 9.29289C10.0976 9.68342 10.0976 10.3166 9.70711 10.7071C9.31658 11.0976 8.68342 11.0976 8.29289 10.7071L6.29289 8.70711C6.10536 8.51957 6 8.26522 6 8V5Z"/>
</mask>
<path d="M8 7.58579H6.6V8.16569L7.01005 8.57574L8 7.58579ZM9.70711 9.29289L8.71716 10.2828L8.71716 10.2828L9.70711 9.29289ZM9.70711 10.7071L8.71716 9.71716L8.71716 9.71716L9.70711 10.7071ZM6.29289 8.70711L7.28284 7.71716L7.28284 7.71716L6.29289 8.70711ZM8 3.4C10.5405 3.4 12.6 5.45949 12.6 8H15.4C15.4 3.91309 12.0869 0.6 8 0.6V3.4ZM3.4 8C3.4 5.45949 5.45949 3.4 8 3.4V0.6C3.91309 0.6 0.6 3.91309 0.6 8H3.4ZM8 12.6C5.45949 12.6 3.4 10.5405 3.4 8H0.6C0.6 12.0869 3.91309 15.4 8 15.4V12.6ZM12.6 8C12.6 10.5405 10.5405 12.6 8 12.6V15.4C12.0869 15.4 15.4 12.0869 15.4 8H12.6ZM7 2.6C5.67452 2.6 4.6 3.67452 4.6 5H7.4C7.4 5.22091 7.22091 5.4 7 5.4V2.6ZM9.4 5C9.4 3.67452 8.32548 2.6 7 2.6V5.4C6.77909 5.4 6.6 5.22091 6.6 5H9.4ZM9.4 7.58579V5H6.6V7.58579H9.4ZM10.6971 8.30294L8.98995 6.59584L7.01005 8.57574L8.71716 10.2828L10.6971 8.30294ZM10.6971 11.6971C11.6343 10.7598 11.6343 9.2402 10.6971 8.30294L8.71716 10.2828C8.56095 10.1266 8.56095 9.87337 8.71716 9.71716L10.6971 11.6971ZM7.30294 11.6971C8.2402 12.6343 9.7598 12.6343 10.6971 11.6971L8.71716 9.71716C8.87337 9.56095 9.12663 9.56095 9.28284 9.71716L7.30294 11.6971ZM5.30294 9.69706L7.30294 11.6971L9.28284 9.71716L7.28284 7.71716L5.30294 9.69706ZM4.6 8C4.6 8.63652 4.85286 9.24697 5.30295 9.69706L7.28284 7.71716C7.35786 7.79217 7.4 7.89391 7.4 8H4.6ZM4.6 5V8H7.4V5H4.6Z" fill="#4D6E7E" mask="url(#path-1-outside-1_0_1365)"/>
</svg>
