<svg width="16" height="13" viewBox="0 0 16 13" fill="none" xmlns="http://www.w3.org/2000/svg">
<path fill-rule="evenodd" clip-rule="evenodd" d="M14.7259 8.05576C14.8111 8.05576 14.9245 8.00241 14.9788 7.93669L15.676 7.08904C15.7172 7.03889 15.7507 6.94556 15.7507 6.88068C15.7507 6.79451 15.6964 6.68046 15.6296 6.62609L13.3436 4.74183V0.954467C13.3436 0.773342 13.1966 0.626343 13.0155 0.626343H11.4843C11.3031 0.626343 11.1561 0.773342 11.1561 0.954467V2.9399L8.70805 0.925761C8.50746 0.760711 8.13386 0.626743 7.87407 0.626743C7.6143 0.626743 7.24067 0.760711 7.04008 0.925761L0.11858 6.62609C0.0528639 6.68043 -0.000488281 6.79373 -0.000488281 6.87902C-0.000488281 6.94423 0.0332641 7.03796 0.0748404 7.08821L0.772104 7.93586C0.826445 8.00193 0.939985 8.05557 1.02551 8.05557C1.09064 8.05557 1.18426 8.0219 1.23449 7.98043L7.66626 2.68286C7.71681 2.64211 7.81051 2.60905 7.87543 2.60905C7.94037 2.60905 8.03407 2.64211 8.08462 2.68286L14.5167 7.98043C14.5669 8.02201 14.6606 8.05576 14.7259 8.05576ZM12.6874 12.875C12.9289 12.875 13.1249 12.679 13.1249 12.4375V7.95309L8.08462 3.80395C8.03407 3.7632 7.94037 3.73014 7.87543 3.73014C7.81051 3.73014 7.71681 3.7632 7.66626 3.80395L2.62491 7.95611V12.4375C2.62491 12.679 2.8209 12.875 3.06241 12.875L6.12653 12.867C6.36683 12.8658 6.56186 12.6698 6.56186 12.4295V9.81246C6.56186 9.57096 6.75786 9.37496 6.99936 9.37496H8.74936C8.99083 9.37496 9.18686 9.57096 9.18686 9.81246L9.18683 12.429C9.18683 12.6437 9.34169 12.8224 9.54572 12.8594L9.62436 12.8665L12.6874 12.875Z" fill="#023047"/>
</svg>
