<svg width="21" height="16" viewBox="0 0 21 16" fill="none" xmlns="http://www.w3.org/2000/svg">
<path fill-rule="evenodd" clip-rule="evenodd" d="M8.94825 0.3871L8.86507 0.292893C8.50458 -0.0675907 7.93735 -0.0953197 7.54506 0.209704L7.45085 0.292893L0.450851 7.29289L0.409454 7.33685L0.354294 7.40469L0.282631 7.51594L0.229185 7.62866L0.193804 7.73401L0.164865 7.8819L0.157959 8L0.160748 8.07524L0.1782 8.20073L0.207697 8.31214L0.251633 8.42322L0.303955 8.52071L0.377647 8.62545L0.450851 8.70711L7.45085 15.7071C7.84138 16.0976 8.47454 16.0976 8.86507 15.7071C9.22555 15.3466 9.25328 14.7794 8.94825 14.3871L8.86507 14.2929L3.57396 9H19.158C19.7102 9 20.158 8.55228 20.158 8C20.158 7.44771 19.7102 7 19.158 7L3.57196 7L8.86507 1.70711C9.22555 1.34662 9.25328 0.779391 8.94825 0.3871L8.86507 0.292893L8.94825 0.3871Z" fill="#00D692"/>
</svg>
