<svg width="212" height="64" viewBox="0 0 212 64" fill="none" xmlns="http://www.w3.org/2000/svg">
<path opacity="0.4" fill-rule="evenodd" clip-rule="evenodd" d="M127.692 44.0168C128.923 44.0168 130.086 44.1386 131.195 44.383C132.299 44.6242 133.267 44.9744 134.095 45.4307C135.209 46.0275 136.063 46.7174 136.657 47.5057C137.25 48.2934 137.544 49.1265 137.544 50.0017C137.544 50.8774 137.245 51.7107 136.647 52.5036C136.05 53.297 135.199 53.9893 134.095 54.5863C133.249 55.0426 132.272 55.3928 131.171 55.634C130.072 55.8785 128.914 55.9999 127.692 55.9999C126.475 55.9999 125.317 55.8785 124.226 55.634C123.135 55.3928 122.157 55.0426 121.302 54.5863C120.206 53.9947 119.361 53.305 118.768 52.5113C118.175 51.7182 117.881 50.8823 117.881 50.0017C117.881 49.1211 118.175 48.2852 118.763 47.4975C119.352 46.71 120.198 46.0226 121.302 45.4307C122.157 44.969 123.135 44.6193 124.226 44.3776C125.317 44.1365 126.475 44.0168 127.692 44.0168ZM139.928 44.3192V55.6978H144.952V50.7634L152.084 55.6978H154.365V44.3192H149.355V49.3017L142.128 44.3192H139.928ZM165.095 55.6978V47.1953H169.031L170 44.3192H156.083L156.107 47.1953H160.044V55.6978H165.095ZM124.43 47.991C125.317 47.4501 126.411 47.1791 127.719 47.1791C129.026 47.1791 130.122 47.4527 131.009 47.9959C131.892 48.54 132.335 49.2086 132.335 49.9991C132.335 50.7928 131.892 51.4608 131.009 52.002C130.122 52.5432 129.026 52.814 127.719 52.814C126.402 52.814 125.303 52.5432 124.425 52.0049C123.542 51.4663 123.103 50.7977 123.103 49.9991C123.103 49.2031 123.547 48.5322 124.43 47.991ZM96.3494 55.6978L98.8018 44.3192H102.897L106.318 49.3784L109.794 44.3192H113.785L116.555 55.6978H112.61L110.337 48.4939L107.114 55.6978H105.954L102.679 48.4751L100.833 55.6978H96.3494ZM81.1442 44.3192V55.6978H86.1672V50.8247L90.1867 55.6978H95.7022L91.4303 50.6996C92.3849 50.5089 93.1368 50.1638 93.6845 49.6702C94.2321 49.1741 94.5078 48.5907 94.5078 47.9164C94.5078 46.7465 93.8338 45.8551 92.4844 45.2398C91.1363 44.6268 89.1857 44.3192 86.6332 44.3192H81.1442ZM86.1672 49.6648H86.6564C87.5612 49.6648 88.2491 49.5454 88.7202 49.3043C89.1949 49.0626 89.4304 48.7124 89.4304 48.2512C89.4304 47.7841 89.204 47.4282 88.7468 47.1819C88.2896 46.9354 87.6385 46.8132 86.7917 46.8132H86.1672V49.6648ZM67.3196 44.3192L60.5315 55.6978H65.7675L66.5102 54.4219H73.3794L74.0805 55.6978H79.4119L72.9949 44.3192H67.3196ZM67.9175 51.5777H71.9089L69.904 47.7394L67.9175 51.5777ZM55.7976 55.748C56.888 55.6314 57.8573 55.467 58.7028 55.2549V49.8218H53.6795V52.6444C53.3804 52.7108 53.0692 52.7612 52.7518 52.7957C52.4354 52.8297 52.1004 52.8459 51.7565 52.8459C50.3805 52.8459 49.254 52.5939 48.385 52.087C47.5119 51.5831 47.0774 50.9279 47.0774 50.1265C47.0774 49.2616 47.548 48.5479 48.4897 47.9885C49.4298 47.4282 50.6348 47.15 52.1004 47.15C52.7657 47.15 53.4354 47.211 54.1184 47.3333C54.7971 47.4547 55.5397 47.649 56.3458 47.9192L58.3993 45.1896C57.5133 44.8419 56.5441 44.5766 55.4899 44.391C54.4309 44.2024 53.3448 44.1095 52.2224 44.1095C49.2772 44.1095 46.8379 44.6777 44.9047 45.8157C42.968 46.9537 42 48.3946 42 50.1396C42 51.9225 42.9275 53.3315 44.7784 54.3689C46.6295 55.406 49.1635 55.9232 52.3812 55.9232C53.5707 55.9232 54.7115 55.8648 55.7976 55.748Z" fill="#023047"/>
<path opacity="0.4" d="M51.666 50.5888H58.6686V49.2485H51.666V50.5888Z" fill="#023047"/>
<path opacity="0.4" d="M105.907 8L129.787 13.0852V13.4753L115.832 22.0334L129.787 30.1001V30.5057L105.907 35.6035V30.7819L117.447 28.1783L106.862 22.276V21.1978L117.236 15.4123L105.907 13.0615V8Z" fill="#023047"/>
<path opacity="0.4" d="M105.907 35.6586L82.2131 30.538V30.1478L96.168 21.5898L82.2131 13.523V13.1174L105.907 8.0343V13.0613L94.5533 15.4448L105.091 21.1978V22.2761L94.4071 28.429L105.907 30.7819V35.6586Z" fill="#023047"/>
</svg>
