<svg width="212" height="64" viewBox="0 0 212 64" fill="none" xmlns="http://www.w3.org/2000/svg">
<path opacity="0.4" fill-rule="evenodd" clip-rule="evenodd" d="M102.497 24.1796L102.508 24.2555V39.5732C102.508 39.6809 102.436 39.7741 102.338 39.8071L102.261 39.8199H95.8773C93.8993 39.8199 92.1236 38.832 91.4268 37.0577C91.1122 36.2488 91 35.2157 91 34.0705C91 32.9028 91.1122 31.8918 91.4496 31.0609C92.1262 29.4124 93.7194 28.44 95.5345 28.3313L95.8773 28.3211H99.114V25.7608C99.114 25.0665 99.6339 24.6321 100.269 24.4406L100.462 24.3905L102.216 24.0089C102.347 23.9712 102.462 24.0586 102.497 24.1796ZM134.841 24.1799L134.851 24.2558V28.321H139.009L138.537 30.859C138.52 30.943 138.453 31.0148 138.373 31.0453L138.29 31.0612H134.829V35.9348C134.829 36.8317 135.216 37.0891 136.099 37.1213L136.312 37.1249H137.93L137.458 39.6632C137.436 39.7525 137.346 39.8426 137.256 39.8651C137.224 39.8694 137.189 39.8741 137.153 39.8792C136.81 39.9264 136.276 40 135.3 40C132.453 40 131.51 38.4061 131.439 36.7882L131.435 36.5859V25.7603C131.435 25.0661 131.955 24.632 132.59 24.4409L132.784 24.3908L134.559 24.0088C134.69 23.9714 134.806 24.0589 134.841 24.1799ZM110.374 28.1415C113.859 28.1415 115.364 30.1822 115.47 31.8978L115.477 32.0941V34.9912C115.477 35.0992 115.405 35.1926 115.307 35.2256L115.229 35.2383H108.148C108.161 35.4497 108.182 35.688 108.216 35.9795C108.3 36.809 108.9 37.0829 109.805 37.1202L110.037 37.1247H114.892L114.465 39.6403C114.443 39.7528 114.352 39.8204 114.24 39.8429L114.199 39.8455C113.17 39.9121 111.814 39.9998 110.217 39.9998C107.497 39.9998 105.699 39.1914 105.07 37.0354C104.846 36.2714 104.846 35.2611 104.846 34.0931C104.846 32.8802 104.89 32.0717 105.16 31.2857C105.879 29.1518 107.835 28.1415 110.374 28.1415ZM150.667 31.8978C150.56 30.1822 149.056 28.1415 145.571 28.1415C143.031 28.1415 141.076 29.1518 140.355 31.2857C140.087 32.0717 140.041 32.8802 140.041 34.0931C140.041 35.2611 140.041 36.2714 140.266 37.0354C140.896 39.1914 142.693 39.9998 145.413 39.9998C147.01 39.9998 148.365 39.9122 149.395 39.8456L149.437 39.8429C149.549 39.8204 149.639 39.7528 149.661 39.6403L150.088 37.1247H145.234L145.001 37.1202C144.096 37.0829 143.496 36.809 143.413 35.9795C143.378 35.688 143.358 35.4497 143.344 35.2383H150.425L150.503 35.2256C150.601 35.1926 150.673 35.0992 150.673 34.9912V32.0941L150.667 31.8978ZM121.05 28.321C121.158 28.321 121.252 28.3927 121.285 28.4905L121.297 28.5681V35.5532C121.297 36.5589 121.709 36.9388 122.714 36.985L122.939 36.9899H125.388V28.5681C125.388 28.4601 125.46 28.3667 125.558 28.3337L125.636 28.321H128.535C128.643 28.321 128.736 28.3927 128.769 28.4905L128.782 28.5681V39.5731C128.782 39.6811 128.711 39.7744 128.613 39.8074L128.535 39.8202H122.512C120.409 39.8202 118.077 39.1939 117.913 36.1889L117.904 35.8451V28.5681C117.904 28.4601 117.976 28.3667 118.074 28.3337L118.151 28.321H121.05ZM159.709 29.9605L160 28.3211H153.055V39.8203H156.45V31.0609H158.405L158.596 31.0477C159.16 30.969 159.607 30.5465 159.709 29.9605ZM96.3493 31.0609H99.114V36.9904H96.3493L96.1264 36.985C95.3357 36.9446 94.8396 36.6666 94.5513 35.8224C94.3713 35.3287 94.3713 34.6315 94.3713 34.0705C94.3713 33.5091 94.3713 32.8127 94.5284 32.2962C94.843 31.3307 95.4277 31.0609 96.3493 31.0609ZM110.756 30.7687H110.105C108.936 30.7687 108.329 31.3081 108.216 32.2066C108.195 32.386 108.179 32.546 108.166 32.7107L108.15 32.9643H112.397V32.3184C112.397 31.4875 111.993 30.7687 110.756 30.7687ZM145.301 30.7687H145.952C147.189 30.7687 147.593 31.4875 147.593 32.3184V32.9643H143.346L143.362 32.7107C143.375 32.546 143.391 32.386 143.413 32.2066C143.525 31.3081 144.132 30.7687 145.301 30.7687Z" fill="#023047"/>
<path opacity="0.4" d="M66.545 25.0423L66.5588 25.1242V51.7613C66.5588 51.9178 66.3998 52.04 66.2411 51.9878C63.4126 51.2223 58.3566 49.3315 54.9268 48.0619C53.8704 47.6722 53.1075 46.7827 53.0105 45.7045L53 45.4707V33.0715C53 30.8632 54.3788 29.2111 56.4643 28.3938C59.5052 27.1939 63.7837 25.6461 66.2229 24.8809C66.3555 24.8375 66.5004 24.9148 66.545 25.0423Z" fill="#023047"/>
<path opacity="0.4" d="M82.9875 12.1637L83 12.2384V45.4881C83 46.6705 82.2396 47.6443 81.1088 48.0618C77.679 49.3314 72.6227 51.2226 69.7942 51.9877C69.6616 52.0312 69.5291 51.9538 69.4886 51.8363L69.4761 51.7616V19.6813C69.4761 17.5076 70.7667 15.8033 72.9586 15.0035C75.2216 14.1859 80.2601 12.6731 82.6819 12.0122C82.8144 11.9688 82.947 12.0461 82.9875 12.1637Z" fill="#023047"/>
</svg>
