<svg width="212" height="64" viewBox="0 0 212 64" fill="none" xmlns="http://www.w3.org/2000/svg">
<path opacity="0.4" d="M61.4648 51.9837C58.0978 51.8509 55.3432 50.9358 53.1892 49.2363C52.7782 48.9116 51.7987 47.9381 51.47 47.5275C50.5966 46.4367 50.0028 45.375 49.6067 44.1971C48.3879 40.5713 49.0152 35.8133 51.4008 30.5915C53.4435 26.121 56.5954 21.6871 62.0943 15.5463C62.9043 14.6427 65.3165 12 65.3321 12C65.3379 12 65.2064 12.2262 65.041 12.5016C63.6112 14.8803 62.3878 17.6822 61.7213 20.1078C60.6507 24 60.7798 27.3401 62.0995 29.9301C63.0098 31.7144 64.5705 33.26 66.3255 34.1143C69.3978 35.6094 73.8959 35.7331 79.3891 34.4762C79.7673 34.3892 98.5079 29.448 121.035 23.4955C143.563 17.5425 161.997 12.6757 162 12.6797C162.006 12.6849 109.663 34.9314 82.4902 46.4728C78.187 48.3 77.0362 48.7616 75.0132 49.467C69.8417 51.2708 65.2093 52.1315 61.4648 51.9837Z" fill="#023047"/>
</svg>
