<svg width="212" height="64" viewBox="0 0 212 64" fill="none" xmlns="http://www.w3.org/2000/svg">
<path opacity="0.4" fill-rule="evenodd" clip-rule="evenodd" d="M131.432 39.5026H117.261L102.517 14.0679L113.109 8L131.432 39.5026ZM101.61 42.5129V39.5026H112.751V44.599C111.725 43.8879 110.485 43.4851 109.149 43.4851C105.666 43.4851 102.851 46.2815 102.851 49.7426C102.851 53.2272 105.666 56 109.149 56C110.485 56 111.725 55.5972 112.751 54.8862V55.7396H115.781V39.5026H112.751L100.871 19.0698L90.2543 25.1141L98.5804 39.5026V42.5129H101.61ZM79.9245 39.5026L77.8725 35.9235L88.4651 29.8785L94.0718 39.5026H79.9245ZM94.0718 44.599L94.0718 39.5026H97.1015V55.7396H94.0718V54.8862C93.0458 55.5972 91.8052 56 90.4696 56C86.9862 56 84.171 53.2272 84.171 49.7426C84.171 46.2815 86.9862 43.4851 90.4696 43.4851C91.8052 43.4851 93.0458 43.8879 94.0718 44.599ZM79.9007 55.7396H82.9305V43.6268H79.9007V44.599C78.8747 43.8879 77.6342 43.4851 76.2986 43.4851C72.8152 43.4851 70 46.2815 70 49.7426C70 53.2272 72.8152 56 76.2986 56C77.6342 56 78.8747 55.5972 79.9007 54.8862V55.7396ZM98.5804 43.6268H101.61V55.7396H98.5804V43.6268ZM72.9585 49.7425C72.9585 47.8225 74.5086 46.2815 76.4411 46.2815C78.3743 46.2815 79.9245 47.8225 79.9245 49.7425C79.9245 51.6626 78.3743 53.2036 76.4411 53.2036C74.5086 53.2036 72.9585 51.6626 72.9585 49.7425ZM90.6129 46.2815C88.6797 46.2815 87.1295 47.8225 87.1295 49.7425C87.1295 51.6626 88.6797 53.2036 90.6129 53.2036C92.5446 53.2036 94.0955 51.6626 94.0955 49.7425C94.0955 47.8225 92.5446 46.2815 90.6129 46.2815ZM105.809 49.7425C105.809 47.8225 107.36 46.2815 109.293 46.2815C111.225 46.2815 112.775 47.8225 112.775 49.7425C112.775 51.6626 111.225 53.2036 109.293 53.2036C107.36 53.2036 105.809 51.6626 105.809 49.7425ZM119.98 49.7425C119.98 47.8225 121.531 46.2815 123.464 46.2815C125.395 46.2815 126.946 47.8225 126.946 49.7425C126.946 51.6626 125.395 53.2036 123.464 53.2036C121.531 53.2036 119.98 51.6626 119.98 49.7425ZM129.952 55.7396H126.922V54.8862C125.896 55.5972 124.656 56 123.32 56C119.837 56 117.022 53.2272 117.022 49.7426C117.022 46.2815 119.837 43.4851 123.32 43.4851C124.656 43.4851 125.896 43.8879 126.922 44.599V43.6268H129.952V55.7396ZM131.074 51.8043C131.169 54.2459 133.269 55.9764 136.776 55.9764C139.638 55.9764 142 54.7438 142 52.0182C142 50.1217 140.926 49.0079 138.445 48.5336L136.513 48.1544C135.272 47.9176 134.413 47.6801 134.413 46.9454C134.413 46.1399 135.249 45.7843 136.298 45.7843C137.825 45.7843 138.445 46.5426 138.493 47.4433H141.547C141.38 45.0725 139.471 43.4851 136.394 43.4851C133.221 43.4851 131.336 45.2149 131.336 47.4669C131.336 50.2169 133.579 50.6668 135.511 51.0224L137.11 51.3071C138.255 51.5203 138.756 51.8522 138.756 52.5161C138.756 53.1084 138.183 53.7008 136.823 53.7008C134.843 53.7008 134.199 52.6821 134.175 51.8043H131.074Z" fill="#023047"/>
</svg>
