<svg width="212" height="64" viewBox="0 0 212 64" fill="none" xmlns="http://www.w3.org/2000/svg">
<path opacity="0.4" fill-rule="evenodd" clip-rule="evenodd" d="M116.369 13.3177H122.721V7H116.369V13.3177ZM145.656 46.9987C137.181 46.9987 130.312 40.1665 130.312 31.738C130.312 28.3968 131.396 25.3089 133.227 22.7963H122.721V35.6175C122.721 41.9034 117.617 47 111.297 47H102.797L93.0893 24.2575L83.384 47H53L65.5613 22.7963H55.7013L53 16.4773H75.9067L63.344 40.6809H79.1773L89.5067 16.4773H96.6707L106.999 40.6809H111.296C114.099 40.6809 116.369 38.4031 116.369 35.6175V16.4773H145.656C154.131 16.4773 161 23.3095 161 31.738C161 40.1652 154.131 46.9987 145.656 46.9987ZM145.656 22.7963C140.697 22.7963 136.664 26.8058 136.664 31.738C136.664 36.6689 140.697 40.6809 145.656 40.6809C150.615 40.6809 154.648 36.6675 154.648 31.738C154.648 26.8058 150.615 22.7963 145.656 22.7963Z" fill="#023047"/>
</svg>
