<svg width="90" height="26" viewBox="0 0 90 26" fill="none" xmlns="http://www.w3.org/2000/svg">
<path fill-rule="evenodd" clip-rule="evenodd" d="M8.04121 22.6322C8.04121 24.4066 6.59275 25.855 4.78217 25.855H3.15265C1.4145 25.7826 0.0384603 24.3704 0.00224871 22.6322V20.025C0.00224871 19.1921 0.400576 18.7938 0.72648 18.6127C0.917749 18.549 1.75448 18.1765 2.39669 17.8906L2.39678 17.8906L2.64569 17.7799V22.1977C2.64569 22.9581 3.26129 23.5737 4.02173 23.5737C4.78217 23.5737 5.39777 22.9581 5.39777 22.1615V19.2645C5.39777 17.7799 4.27521 15.8244 4.27521 15.8244L1.16102 9.99439C0.098034 8.05064 0.00300233 6.53993 0 6.10317L0.000542122 6.02174C0.00123132 5.99084 0.00224871 5.9749 0.00224871 5.9749V3.36767C0.00224871 1.59331 1.45071 0 3.26129 0H4.89081C6.62896 0.0362115 8.04121 1.62952 8.04121 3.36767V4.34539C8.04121 5.17825 7.64288 5.57658 7.31698 5.75764C7.09971 5.86627 6.08579 6.33702 5.39777 6.62671V3.69358C5.39777 2.89692 4.78217 2.28133 4.02173 2.28133C3.26129 2.28133 2.64569 2.89692 2.64569 3.69358V6.11975C2.64569 7.60442 3.76825 9.52364 3.76825 9.52364L6.88244 15.3899C8.14985 17.7074 8.04121 19.4094 8.04121 19.4094V22.6322ZM23.5156 14.2311V25.6016H21.6688C21.0532 25.6016 20.9446 25.2394 20.9446 25.0584V0.253481H25.471C27.2092 0.253481 28.7663 1.66573 28.7663 3.4401V9.99439C28.7663 12.4568 27.5713 14.2311 25.0727 14.2311H23.5156ZM24.8916 11.805H23.5156V2.67965H24.8916C25.6159 2.67965 26.1953 3.22283 26.2677 3.91085V10.5738C26.1953 11.2618 25.6159 11.805 24.8916 11.805ZM48.6585 22.6684C48.6223 24.4066 47.2462 25.7826 45.5081 25.855H43.5164C41.7421 25.855 40.2936 24.4066 40.2574 22.6684V3.22283C40.2574 1.44846 41.7059 0 43.5164 0H45.5081C47.2462 0.0724231 48.6585 1.48467 48.6585 3.22283V22.6684ZM44.639 23.5737H44.2407C43.4802 23.5375 42.8646 22.9219 42.8646 22.1615V3.69358C42.8646 2.93313 43.4802 2.31754 44.2407 2.28133H44.639C45.3995 2.28133 46.015 2.89692 46.015 3.69358V22.1615C46.015 22.9581 45.3995 23.5737 44.639 23.5737ZM63.2638 14.7019V25.6016H60.6566V0.253481H65.4003C67.1385 0.253481 68.5869 1.66573 68.5869 3.4401V11.2618C68.5869 11.2618 68.6955 13.2534 67.6454 13.5069C68.4971 13.9328 68.5823 15.3295 68.5877 15.7656L68.5877 15.8624L68.5873 15.8841L68.5869 15.8969V25.6016H65.9797V16.3314C65.9797 15.1002 65.3279 14.7019 64.6399 14.7019H63.2638ZM64.6399 12.2395H63.2638V2.67965H64.6399C65.3279 2.67965 65.9797 3.04177 65.9797 3.98327V10.791C65.9797 11.9498 65.3279 12.2395 64.6399 12.2395ZM85.0752 3.4401V25.6016H83.2284C82.6128 25.6016 82.5042 25.2394 82.5042 25.0584V2.8245H78.8468V1.05013C78.8468 0.615596 79.209 0.253481 79.6435 0.253481H90L89.1309 2.13648C88.9861 2.46238 88.5878 2.8245 87.7549 2.8245H85.727C85.3649 2.8245 85.1114 3.11419 85.0752 3.4401Z" fill="#219EBC"/>
</svg>
