<svg width="212" height="64" viewBox="0 0 212 64" fill="none" xmlns="http://www.w3.org/2000/svg">
<path fill-rule="evenodd" clip-rule="evenodd" d="M68.0867 20.3303H59.4334L52.2495 35.603L38.7635 26.8432L39.2859 25.5406H51.3352L53.8169 20.2H37.0655C36.0205 20.2 35.1062 20.8513 34.7144 21.7631L33.0164 25.2801C32.1021 27.2339 32.7551 29.5786 34.5838 30.8812L45.5881 38.0453L45.3269 38.6966H29.8816L27.3999 44.0372H54.7312L63.7764 24.8893L70.3071 38.8594H62.6008L65.0825 44.2H79.3196L68.0867 20.3303ZM173.265 20.4605H164.644L155.73 39.5107L154.293 29.6111H144.758L140.187 39.5107V20.4605H133.917V44.2H144.529L148.709 34.9517L150.015 44.2H159.942L168.955 25.0196L175.485 38.8594H167.779L170.261 44.2H184.4L173.265 20.4605ZM130.488 20.4605L128.007 25.6708V25.7034H111.386V30.0019H126.047L123.958 34.5609H111.386V38.8594H130.488L128.007 44.2H107.99L110.471 38.8594H106.422L103.941 44.2H82.6177V20.4605H88.8872V38.8594H105.116V20.4605H130.488Z" fill="#94A6B0"/>
</svg>
