<svg width="14" height="14" viewBox="0 0 14 14" fill="none" xmlns="http://www.w3.org/2000/svg">
<path fill-rule="evenodd" clip-rule="evenodd" d="M7.99998 6.00009L7.99998 1.34309C7.99998 0.790128 7.55309 0.343236 7.00013 0.343236C6.44717 0.343236 6.00028 0.790127 6.00028 1.34308L6.00028 6.00009L1.34328 6.00009C0.790321 6.00009 0.343429 6.44698 0.343429 6.99994C0.343429 7.5529 0.790321 7.99979 1.34328 7.99979L6.00028 7.99979L6.00028 12.6568C6.00028 13.2098 6.44717 13.6566 7.00013 13.6566C7.2759 13.6566 7.52622 13.5449 7.70724 13.3639C7.88826 13.1829 7.99998 12.9326 7.99998 12.6568L7.99998 7.99979L12.657 7.99979C12.9328 7.99979 13.1831 7.88807 13.3641 7.70705C13.5451 7.52603 13.6568 7.27571 13.6568 6.99994C13.6568 6.44698 13.2099 6.00009 12.657 6.00009L7.99998 6.00009Z" fill="#219EBC"/>
</svg>
