<svg width="21" height="16" viewBox="0 0 21 16" fill="none" xmlns="http://www.w3.org/2000/svg">
<path fill-rule="evenodd" clip-rule="evenodd" d="M11.3677 0.3871L11.4509 0.292893C11.8113 -0.0675907 12.3786 -0.0953197 12.7709 0.209704L12.8651 0.292893L19.8651 7.29289L19.9065 7.33685L19.9616 7.40469L20.0333 7.51594L20.0867 7.62866L20.1221 7.73401L20.1511 7.8819L20.158 8L20.1552 8.07524L20.1377 8.20073L20.1082 8.31214L20.0643 8.42322L20.012 8.52071L19.9383 8.62545L19.8651 8.70711L12.8651 15.7071C12.4745 16.0976 11.8414 16.0976 11.4509 15.7071C11.0904 15.3466 11.0626 14.7794 11.3677 14.3871L11.4509 14.2929L16.742 9H1.15796C0.605674 9 0.157959 8.55228 0.157959 8C0.157959 7.44771 0.605674 7 1.15796 7L16.744 7L11.4509 1.70711C11.0904 1.34662 11.0626 0.779391 11.3677 0.3871L11.4509 0.292893L11.3677 0.3871Z" fill="#00D692"/>
</svg>
