<svg width="18" height="14" viewBox="0 0 18 14" fill="none" xmlns="http://www.w3.org/2000/svg">
<mask id="path-1-outside-1_0_1373" maskUnits="userSpaceOnUse" x="0" y="0" width="18" height="14" fill="black">
<rect fill="white" width="18" height="14"/>
<path fill-rule="evenodd" clip-rule="evenodd" d="M4.02553 8.99664C3.31992 8.98761 2.66183 9.35114 2.294 9.95314C2.11488 9.87218 1.99984 9.69381 2 9.4973V2.49982C2 2.22378 2.22386 2 2.5 2H11.5C11.7761 2 12 2.22378 12 2.49982V9.26539C11.6963 9.44123 11.4439 9.69351 11.268 9.99712H5.732C5.3797 9.38591 4.73113 9.00567 4.02553 8.99664ZM14.732 9.99712C14.3747 9.37856 13.7145 8.9975 13 8.99748V4.99892H14.02C14.1718 4.99914 14.3153 5.06828 14.41 5.18685L15.89 7.03619C15.961 7.12466 15.9998 7.23465 16 7.34808V9.4973C16 9.77335 15.7761 9.99712 15.5 9.99712H14.732ZM4 9.99712C3.44772 9.99712 3 10.4447 3 10.9968C3 11.5489 3.44772 11.9964 4 11.9964C4.55229 11.9964 5 11.5489 5 10.9968C5 10.4447 4.55229 9.99712 4 9.99712ZM12 10.9968C12 10.4447 12.4477 9.99712 13 9.99712C13.5523 9.99712 14 10.4447 14 10.9968C14 11.5489 13.5523 11.9964 13 11.9964C12.4477 11.9964 12 11.5489 12 10.9968Z"/>
</mask>
<path d="M2.294 9.95314L1.71737 11.2289L2.84401 11.7381L3.48864 10.6831L2.294 9.95314ZM4.02553 8.99664L4.04344 7.59675L4.02553 8.99664ZM2 9.4973L3.4 9.49844V9.4973H2ZM12 9.26539L12.7014 10.477L13.4 10.0726V9.26539H12ZM11.268 9.99712V11.3971H12.0749L12.4794 10.699L11.268 9.99712ZM5.732 9.99712L4.51907 10.6963L4.92304 11.3971H5.732V9.99712ZM13 8.99748H11.6V10.3974L13 10.3975L13 8.99748ZM14.732 9.99712L13.5197 10.6973L13.9239 11.3971H14.732V9.99712ZM13 4.99892V3.59892H11.6V4.99892H13ZM14.02 4.99892L14.022 3.59892H14.02V4.99892ZM14.41 5.18685L13.3162 6.06064L13.3169 6.06162L14.41 5.18685ZM15.89 7.03619L14.7969 7.91095L14.7982 7.91248L15.89 7.03619ZM16 7.34808H17.4L17.4 7.34558L16 7.34808ZM3.48864 10.6831C3.59876 10.5029 3.79594 10.3938 4.00762 10.3965L4.04344 7.59675C2.8439 7.58141 1.72491 8.19941 1.09936 9.22319L3.48864 10.6831ZM0.600001 9.49616C0.599392 10.2434 1.03683 10.9213 1.71737 11.2289L2.87063 8.6774C3.19294 8.82309 3.40029 9.14425 3.4 9.49844L0.600001 9.49616ZM0.6 2.49982V9.4973H3.4V2.49982H0.6ZM2.5 0.6C1.45114 0.6 0.6 1.4501 0.6 2.49982H3.4C3.4 2.99745 2.99658 3.4 2.5 3.4V0.6ZM11.5 0.6H2.5V3.4H11.5V0.6ZM13.4 2.49982C13.4 1.4501 12.5489 0.6 11.5 0.6V3.4C11.0034 3.4 10.6 2.99745 10.6 2.49982H13.4ZM13.4 9.26539V2.49982H10.6V9.26539H13.4ZM12.4794 10.699C12.5327 10.6069 12.6093 10.5304 12.7014 10.477L11.2986 8.05379C10.7833 8.35209 10.3551 8.78011 10.0566 9.2953L12.4794 10.699ZM5.732 11.3971H11.268V8.59712H5.732V11.3971ZM4.00762 10.3965C4.21929 10.3992 4.41361 10.5133 4.51907 10.6963L6.94494 9.29799C6.34579 8.25853 5.24297 7.6121 4.04344 7.59675L4.00762 10.3965ZM13 10.3975C13.2146 10.3975 13.4126 10.5119 13.5197 10.6973L15.9443 9.29693C15.3369 8.24518 14.2145 7.59751 13 7.59748L13 10.3975ZM11.6 4.99892V8.99748H14.4V4.99892H11.6ZM14.02 3.59892H13V6.39892H14.02V3.59892ZM15.5038 4.31306C15.1438 3.86238 14.5986 3.59974 14.022 3.59892L14.018 6.39892C13.745 6.39853 13.4867 6.27417 13.3162 6.06064L15.5038 4.31306ZM16.9831 6.16142L15.5031 4.31209L13.3169 6.06162L14.7969 7.91095L16.9831 6.16142ZM17.4 7.34558C17.3992 6.91431 17.2517 6.49618 16.9818 6.1599L14.7982 7.91248C14.6703 7.75314 14.6004 7.55499 14.6 7.35057L17.4 7.34558ZM17.4 9.4973V7.34808H14.6V9.4973H17.4ZM15.5 11.3971C16.5489 11.3971 17.4 10.547 17.4 9.4973H14.6C14.6 8.99967 15.0034 8.59712 15.5 8.59712V11.3971ZM14.732 11.3971H15.5V8.59712H14.732V11.3971ZM4.4 10.9968C4.4 11.2184 4.22044 11.3971 4 11.3971V8.59712C2.67499 8.59712 1.6 9.671 1.6 10.9968H4.4ZM4 10.5964C4.22044 10.5964 4.4 10.7752 4.4 10.9968H1.6C1.6 12.3225 2.67499 13.3964 4 13.3964V10.5964ZM3.6 10.9968C3.6 10.7752 3.77956 10.5964 4 10.5964V13.3964C5.32501 13.3964 6.4 12.3225 6.4 10.9968H3.6ZM4 11.3971C3.77956 11.3971 3.6 11.2184 3.6 10.9968H6.4C6.4 9.671 5.32501 8.59712 4 8.59712V11.3971ZM13 8.59712C11.675 8.59712 10.6 9.671 10.6 10.9968H13.4C13.4 11.2184 13.2204 11.3971 13 11.3971V8.59712ZM15.4 10.9968C15.4 9.671 14.325 8.59712 13 8.59712V11.3971C12.7796 11.3971 12.6 11.2184 12.6 10.9968H15.4ZM13 13.3964C14.325 13.3964 15.4 12.3225 15.4 10.9968H12.6C12.6 10.7752 12.7796 10.5964 13 10.5964V13.3964ZM10.6 10.9968C10.6 12.3225 11.675 13.3964 13 13.3964V10.5964C13.2204 10.5964 13.4 10.7752 13.4 10.9968H10.6Z" fill="#4D6E7E" mask="url(#path-1-outside-1_0_1373)"/>
</svg>
