<svg width="16" height="16" viewBox="0 0 16 16" fill="none" xmlns="http://www.w3.org/2000/svg">
<g opacity="0.5">
<path fill-rule="evenodd" clip-rule="evenodd" d="M8 8.00004C6.15905 8.00004 4.66667 6.50766 4.66667 4.66671C4.66667 2.82576 6.15905 1.33337 8 1.33337C9.84095 1.33337 11.3333 2.82576 11.3333 4.66671C11.3333 6.50766 9.84095 8.00004 8 8.00004ZM14 14V12.6667C14 10.8258 12.5076 9.33337 10.6667 9.33337H5.33333C3.49238 9.33337 2 10.8258 2 12.6667V14C2 14.3682 2.29848 14.6667 2.66667 14.6667C3.03486 14.6667 3.33333 14.3682 3.33333 14V12.6667C3.33333 11.5621 4.22876 10.6667 5.33333 10.6667H10.6667C11.7712 10.6667 12.6667 11.5621 12.6667 12.6667V14C12.6667 14.3682 12.9651 14.6667 13.3333 14.6667C13.7015 14.6667 14 14.3682 14 14ZM10 4.66671C10 5.77128 9.10457 6.66671 8 6.66671C6.89543 6.66671 6 5.77128 6 4.66671C6 3.56214 6.89543 2.66671 8 2.66671C9.10457 2.66671 10 3.56214 10 4.66671Z" fill="#219EBC"/>
<path d="M4.16667 4.66671C4.16667 6.7838 5.88291 8.50004 8 8.50004V7.50004C6.43519 7.50004 5.16667 6.23151 5.16667 4.66671H4.16667ZM8 0.833374C5.88291 0.833374 4.16667 2.54962 4.16667 4.66671H5.16667C5.16667 3.1019 6.43519 1.83337 8 1.83337V0.833374ZM11.8333 4.66671C11.8333 2.54962 10.1171 0.833374 8 0.833374V1.83337C9.56481 1.83337 10.8333 3.1019 10.8333 4.66671H11.8333ZM8 8.50004C10.1171 8.50004 11.8333 6.7838 11.8333 4.66671H10.8333C10.8333 6.23151 9.56481 7.50004 8 7.50004V8.50004ZM13.5 12.6667V14H14.5V12.6667H13.5ZM10.6667 9.83337C12.2315 9.83337 13.5 11.1019 13.5 12.6667H14.5C14.5 10.5496 12.7838 8.83337 10.6667 8.83337V9.83337ZM5.33333 9.83337H10.6667V8.83337H5.33333V9.83337ZM2.5 12.6667C2.5 11.1019 3.76853 9.83337 5.33333 9.83337V8.83337C3.21624 8.83337 1.5 10.5496 1.5 12.6667H2.5ZM2.5 14V12.6667H1.5V14H2.5ZM2.66667 14.1667C2.57462 14.1667 2.5 14.0921 2.5 14H1.5C1.5 14.6444 2.02233 15.1667 2.66667 15.1667V14.1667ZM2.83333 14C2.83333 14.0921 2.75871 14.1667 2.66667 14.1667V15.1667C3.311 15.1667 3.83333 14.6444 3.83333 14H2.83333ZM2.83333 12.6667V14H3.83333V12.6667H2.83333ZM5.33333 10.1667C3.95262 10.1667 2.83333 11.286 2.83333 12.6667H3.83333C3.83333 11.8383 4.50491 11.1667 5.33333 11.1667V10.1667ZM10.6667 10.1667H5.33333V11.1667H10.6667V10.1667ZM13.1667 12.6667C13.1667 11.286 12.0474 10.1667 10.6667 10.1667V11.1667C11.4951 11.1667 12.1667 11.8383 12.1667 12.6667H13.1667ZM13.1667 14V12.6667H12.1667V14H13.1667ZM13.3333 14.1667C13.2413 14.1667 13.1667 14.0921 13.1667 14H12.1667C12.1667 14.6444 12.689 15.1667 13.3333 15.1667V14.1667ZM13.5 14C13.5 14.0921 13.4254 14.1667 13.3333 14.1667V15.1667C13.9777 15.1667 14.5 14.6444 14.5 14H13.5ZM8 7.16671C9.38071 7.16671 10.5 6.04742 10.5 4.66671H9.5C9.5 5.49513 8.82843 6.16671 8 6.16671V7.16671ZM5.5 4.66671C5.5 6.04742 6.61929 7.16671 8 7.16671V6.16671C7.17157 6.16671 6.5 5.49513 6.5 4.66671H5.5ZM8 2.16671C6.61929 2.16671 5.5 3.286 5.5 4.66671H6.5C6.5 3.83828 7.17157 3.16671 8 3.16671V2.16671ZM10.5 4.66671C10.5 3.286 9.38071 2.16671 8 2.16671V3.16671C8.82843 3.16671 9.5 3.83828 9.5 4.66671H10.5Z" fill="#219EBC"/>
<mask id="mask0_0_2268" style="mask-type:alpha" maskUnits="userSpaceOnUse" x="1" y="0" width="14" height="16">
<path fill-rule="evenodd" clip-rule="evenodd" d="M8 8.00004C6.15905 8.00004 4.66667 6.50766 4.66667 4.66671C4.66667 2.82576 6.15905 1.33337 8 1.33337C9.84095 1.33337 11.3333 2.82576 11.3333 4.66671C11.3333 6.50766 9.84095 8.00004 8 8.00004ZM14 14V12.6667C14 10.8258 12.5076 9.33337 10.6667 9.33337H5.33333C3.49238 9.33337 2 10.8258 2 12.6667V14C2 14.3682 2.29848 14.6667 2.66667 14.6667C3.03486 14.6667 3.33333 14.3682 3.33333 14V12.6667C3.33333 11.5621 4.22876 10.6667 5.33333 10.6667H10.6667C11.7712 10.6667 12.6667 11.5621 12.6667 12.6667V14C12.6667 14.3682 12.9651 14.6667 13.3333 14.6667C13.7015 14.6667 14 14.3682 14 14ZM10 4.66671C10 5.77128 9.10457 6.66671 8 6.66671C6.89543 6.66671 6 5.77128 6 4.66671C6 3.56214 6.89543 2.66671 8 2.66671C9.10457 2.66671 10 3.56214 10 4.66671Z" fill="white"/>
<path d="M4.16667 4.66671C4.16667 6.7838 5.88291 8.50004 8 8.50004V7.50004C6.43519 7.50004 5.16667 6.23151 5.16667 4.66671H4.16667ZM8 0.833374C5.88291 0.833374 4.16667 2.54962 4.16667 4.66671H5.16667C5.16667 3.1019 6.43519 1.83337 8 1.83337V0.833374ZM11.8333 4.66671C11.8333 2.54962 10.1171 0.833374 8 0.833374V1.83337C9.56481 1.83337 10.8333 3.1019 10.8333 4.66671H11.8333ZM8 8.50004C10.1171 8.50004 11.8333 6.7838 11.8333 4.66671H10.8333C10.8333 6.23151 9.56481 7.50004 8 7.50004V8.50004ZM13.5 12.6667V14H14.5V12.6667H13.5ZM10.6667 9.83337C12.2315 9.83337 13.5 11.1019 13.5 12.6667H14.5C14.5 10.5496 12.7838 8.83337 10.6667 8.83337V9.83337ZM5.33333 9.83337H10.6667V8.83337H5.33333V9.83337ZM2.5 12.6667C2.5 11.1019 3.76853 9.83337 5.33333 9.83337V8.83337C3.21624 8.83337 1.5 10.5496 1.5 12.6667H2.5ZM2.5 14V12.6667H1.5V14H2.5ZM2.66667 14.1667C2.57462 14.1667 2.5 14.0921 2.5 14H1.5C1.5 14.6444 2.02233 15.1667 2.66667 15.1667V14.1667ZM2.83333 14C2.83333 14.0921 2.75871 14.1667 2.66667 14.1667V15.1667C3.311 15.1667 3.83333 14.6444 3.83333 14H2.83333ZM2.83333 12.6667V14H3.83333V12.6667H2.83333ZM5.33333 10.1667C3.95262 10.1667 2.83333 11.286 2.83333 12.6667H3.83333C3.83333 11.8383 4.50491 11.1667 5.33333 11.1667V10.1667ZM10.6667 10.1667H5.33333V11.1667H10.6667V10.1667ZM13.1667 12.6667C13.1667 11.286 12.0474 10.1667 10.6667 10.1667V11.1667C11.4951 11.1667 12.1667 11.8383 12.1667 12.6667H13.1667ZM13.1667 14V12.6667H12.1667V14H13.1667ZM13.3333 14.1667C13.2413 14.1667 13.1667 14.0921 13.1667 14H12.1667C12.1667 14.6444 12.689 15.1667 13.3333 15.1667V14.1667ZM13.5 14C13.5 14.0921 13.4254 14.1667 13.3333 14.1667V15.1667C13.9777 15.1667 14.5 14.6444 14.5 14H13.5ZM8 7.16671C9.38071 7.16671 10.5 6.04742 10.5 4.66671H9.5C9.5 5.49513 8.82843 6.16671 8 6.16671V7.16671ZM5.5 4.66671C5.5 6.04742 6.61929 7.16671 8 7.16671V6.16671C7.17157 6.16671 6.5 5.49513 6.5 4.66671H5.5ZM8 2.16671C6.61929 2.16671 5.5 3.286 5.5 4.66671H6.5C6.5 3.83828 7.17157 3.16671 8 3.16671V2.16671ZM10.5 4.66671C10.5 3.286 9.38071 2.16671 8 2.16671V3.16671C8.82843 3.16671 9.5 3.83828 9.5 4.66671H10.5Z" fill="white"/>
</mask>
<g mask="url(#mask0_0_2268)">
</g>
</g>
</svg>
